<mxfile host="drawio-plugin" modified="2022-12-10T02:34:26.717Z" agent="5.0 (Windows NT 6.2; Win64; x64) AppleWebKit/537.36 (KHTML, like Gecko) Chrome/98.0.4758.102 Safari/537.36" etag="X8p535bxC-wwmwONBkML" version="20.5.3" type="embed"><diagram id="Hdw9nfxEkwr1Qo68ymNl" name="Page-1"><mxGraphModel dx="1038" dy="614" grid="1" gridSize="10" guides="1" tooltips="1" connect="1" arrows="1" fold="1" page="1" pageScale="1" pageWidth="850" pageHeight="1100" math="0" shadow="0"><root><mxCell id="0"/><mxCell id="1" parent="0"/><mxCell id="2" value="ScoreView" style="swimlane;fontStyle=1;align=center;verticalAlign=top;childLayout=stackLayout;horizontal=1;startSize=26;horizontalStack=0;resizeParent=1;resizeParentMax=0;resizeLast=0;collapsible=1;marginBottom=0;" parent="1" vertex="1"><mxGeometry x="245" y="360" width="250" height="190" as="geometry"/></mxCell><mxCell id="3" value="-model: ScrabbleModel&#10;-title: JLabel&#10;-scorePanel: JPanel&#10;-playerLabels: JLabel[ ]&#10;-width: int&#10;-heigth: int" style="text;strokeColor=none;fillColor=none;align=left;verticalAlign=top;spacingLeft=4;spacingRight=4;overflow=hidden;rotatable=0;points=[[0,0.5],[1,0.5]];portConstraint=eastwest;" parent="2" vertex="1"><mxGeometry y="26" width="250" height="104" as="geometry"/></mxCell><mxCell id="4" value="" style="line;strokeWidth=1;fillColor=none;align=left;verticalAlign=middle;spacingTop=-1;spacingLeft=3;spacingRight=3;rotatable=0;labelPosition=right;points=[];portConstraint=eastwest;" parent="2" vertex="1"><mxGeometry y="130" width="250" height="8" as="geometry"/></mxCell><mxCell id="5" value="+ScoreView(ScrabbleModel)&#10;+ update(List&lt;Player&gt;): void&#10;+ handleModelEvent(ModelEvent): void" style="text;strokeColor=none;fillColor=none;align=left;verticalAlign=top;spacingLeft=4;spacingRight=4;overflow=hidden;rotatable=0;points=[[0,0.5],[1,0.5]];portConstraint=eastwest;" parent="2" vertex="1"><mxGeometry y="138" width="250" height="52" as="geometry"/></mxCell><mxCell id="6" value="&lt;&lt;interface&gt;&gt;&#10;ModelListener" style="swimlane;fontStyle=1;childLayout=stackLayout;horizontal=1;startSize=30;fillColor=none;horizontalStack=0;resizeParent=1;resizeParentMax=0;resizeLast=0;collapsible=1;marginBottom=0;" parent="1" vertex="1"><mxGeometry x="225" y="210" width="220" height="54" as="geometry"/></mxCell><mxCell id="7" value="+ handleModelEvent(ModelEvent): void" style="text;strokeColor=none;fillColor=none;align=left;verticalAlign=top;spacingLeft=4;spacingRight=4;overflow=hidden;rotatable=0;points=[[0,0.5],[1,0.5]];portConstraint=eastwest;fontStyle=0" parent="6" vertex="1"><mxGeometry y="30" width="220" height="24" as="geometry"/></mxCell><mxCell id="8" value="" style="endArrow=diamondThin;endFill=0;endSize=24;html=1;rounded=0;" parent="1" source="6" edge="1"><mxGeometry width="160" relative="1" as="geometry"><mxPoint x="70" y="40" as="sourcePoint"/><mxPoint x="335" y="160" as="targetPoint"/></mxGeometry></mxCell><mxCell id="9" value="JPanel" style="swimlane;fontStyle=1;align=center;verticalAlign=top;childLayout=stackLayout;horizontal=1;startSize=26;horizontalStack=0;resizeParent=1;resizeParentMax=0;resizeLast=0;collapsible=1;marginBottom=0;" parent="1" vertex="1"><mxGeometry x="260" y="580" width="220" height="34" as="geometry"/></mxCell><mxCell id="10" value="" style="line;strokeWidth=1;fillColor=none;align=left;verticalAlign=middle;spacingTop=-1;spacingLeft=3;spacingRight=3;rotatable=0;labelPosition=right;points=[];portConstraint=eastwest;" parent="9" vertex="1"><mxGeometry y="26" width="220" height="8" as="geometry"/></mxCell><mxCell id="11" value="" style="endArrow=block;endSize=16;endFill=0;html=1;rounded=0;" parent="1" source="2" target="9" edge="1"><mxGeometry width="160" relative="1" as="geometry"><mxPoint x="615" y="420" as="sourcePoint"/><mxPoint x="615" y="274" as="targetPoint"/></mxGeometry></mxCell><mxCell id="12" value="" style="endArrow=diamondThin;endFill=0;endSize=24;html=1;rounded=0;" parent="1" source="2" target="9" edge="1"><mxGeometry width="160" relative="1" as="geometry"><mxPoint x="495" y="473.8888888888889" as="sourcePoint"/><mxPoint x="180" y="570" as="targetPoint"/><Array as="points"><mxPoint x="170" y="460"/><mxPoint x="170" y="620"/><mxPoint x="210" y="650"/><mxPoint x="240" y="650"/></Array></mxGeometry></mxCell><mxCell id="13" value="" style="endArrow=block;dashed=1;endFill=0;endSize=12;html=1;rounded=0;entryX=0.518;entryY=1.125;entryDx=0;entryDy=0;entryPerimeter=0;exitX=0.38;exitY=-0.011;exitDx=0;exitDy=0;exitPerimeter=0;" parent="1" source="2" target="7" edge="1"><mxGeometry width="160" relative="1" as="geometry"><mxPoint x="340" y="350" as="sourcePoint"/><mxPoint x="520" y="330" as="targetPoint"/></mxGeometry></mxCell><mxCell id="14" value="JLabel" style="swimlane;fontStyle=1;align=center;verticalAlign=top;childLayout=stackLayout;horizontal=1;startSize=26;horizontalStack=0;resizeParent=1;resizeParentMax=0;resizeLast=0;collapsible=1;marginBottom=0;" parent="1" vertex="1"><mxGeometry x="315" y="650" width="220" height="34" as="geometry"/></mxCell><mxCell id="15" value="" style="line;strokeWidth=1;fillColor=none;align=left;verticalAlign=middle;spacingTop=-1;spacingLeft=3;spacingRight=3;rotatable=0;labelPosition=right;points=[];portConstraint=eastwest;" parent="14" vertex="1"><mxGeometry y="26" width="220" height="8" as="geometry"/></mxCell><mxCell id="16" value="" style="endArrow=diamondThin;endFill=0;endSize=24;html=1;rounded=0;entryX=0;entryY=0.5;entryDx=0;entryDy=0;" parent="1" target="14" edge="1"><mxGeometry width="160" relative="1" as="geometry"><mxPoint x="170" y="620" as="sourcePoint"/><mxPoint x="225" y="666.5" as="targetPoint"/><Array as="points"><mxPoint x="170" y="690"/><mxPoint x="190" y="680"/></Array></mxGeometry></mxCell><mxCell id="17" value="ScrabbleModel" style="html=1;" parent="1" vertex="1"><mxGeometry x="270" y="110" width="110" height="50" as="geometry"/></mxCell><mxCell id="18" value="See ScrabbleModel UML" style="shape=note;whiteSpace=wrap;html=1;backgroundOutline=1;darkOpacity=0.05;size=9;" parent="1" vertex="1"><mxGeometry x="510" y="180" width="130" height="40" as="geometry"/></mxCell><mxCell id="19" value="" style="endArrow=none;dashed=1;html=1;dashPattern=1 3;strokeWidth=2;rounded=0;entryX=0;entryY=0.5;entryDx=0;entryDy=0;entryPerimeter=0;" parent="1" target="18" edge="1"><mxGeometry width="50" height="50" relative="1" as="geometry"><mxPoint x="345" y="110" as="sourcePoint"/><mxPoint x="395" y="60" as="targetPoint"/><Array as="points"><mxPoint x="365" y="80"/></Array></mxGeometry></mxCell></root></mxGraphModel></diagram></mxfile>